<svg width="16" height="16" viewBox="0 0 16 16" fill="none" xmlns="http://www.w3.org/2000/svg">
<g clip-path="url(#clip0_217_185)">
<path fill-rule="evenodd" clip-rule="evenodd" d="M15.275 4.09598L15.1583 3.89598C15.0078 3.65414 14.7956 3.45313 14.5417 3.31199L8.95 0.215999C8.69683 0.0749997 8.40942 0.000495998 8.11667 0H7.875C7.58225 0.000495998 7.29483 0.0749997 7.04167 0.215999L1.45 3.31999C1.19747 3.46019 0.987717 3.66156 0.841667 3.90398L0.725 4.10398C0.578125 4.34705 0.500517 4.62297 0.5 4.90398V11.104C0.500517 11.385 0.578125 11.6609 0.725 11.9039L0.841667 12.1039C0.991492 12.3435 1.20041 12.5441 1.45 12.6879L7.05 15.7839C7.30192 15.9279 7.59017 16.0026 7.88333 15.9999H8.11667C8.40942 15.9995 8.69683 15.925 8.95 15.7839L14.5417 12.6799C14.7967 12.5429 15.0072 12.3407 15.15 12.0959L15.275 11.896C15.4201 11.6522 15.4976 11.3768 15.5 11.096V4.89598C15.4995 4.61497 15.4219 4.33905 15.275 4.09598ZM7.875 1.59999H8.11667L13 4.30398L8 7.07197L3 4.30398L7.875 1.59999ZM8.83333 13.9999L13.7083 11.296L13.8333 11.096V5.68798L8.83333 8.46396V13.9999Z" fill="#D9D9D9"/>
</g>
<defs>
<clipPath id="clip0_217_185">
<rect width="16" height="16" fill="white"/>
</clipPath>
</defs>
</svg>
