<svg width="24" height="24" viewBox="0 0 24 24" fill="none" xmlns="http://www.w3.org/2000/svg">
<path d="M5.95167 3.99805C3.91766 3.99805 2.32568 4.51204 2.04468 6.46704C1.95468 7.09304 2.15267 7.70905 2.60767 8.15405C2.83367 8.37505 3.07267 8.63805 3.38867 8.90405C4.18168 9.57305 5.19268 10.325 6.13868 10.998C8.74168 12.848 10.7967 13.998 12.0137 13.998C13.2307 13.998 15.2857 12.848 17.8887 10.998C18.8357 10.325 19.8467 9.57205 20.6387 8.90405C20.9547 8.63805 21.1937 8.37605 21.4197 8.15405C21.8747 7.70905 22.0727 7.09304 21.9827 6.46704C21.7017 4.51204 20.1097 3.99805 18.0757 3.99805H5.95167ZM2.01367 10.154V15.998C2.01367 18.207 3.80467 19.998 6.01368 19.998H18.0137C20.2227 19.998 22.0137 18.207 22.0137 15.998V10.154C21.1937 10.933 20.2777 11.737 18.9827 12.654C16.1467 14.662 13.5997 15.998 12.0137 15.998C10.4277 15.998 7.88069 14.662 5.04468 12.654C3.74868 11.737 2.83367 10.933 2.01367 10.154Z" fill="black"/>
</svg>
