<svg width="24" height="24" viewBox="0 0 24 24" fill="none" xmlns="http://www.w3.org/2000/svg">
<path d="M7.99902 6.10352C4.68502 6.10352 1.99902 8.78952 1.99902 12.1035C1.99902 15.4175 4.68502 18.1035 7.99902 18.1035C10.122 18.1035 12.568 16.8835 13.674 14.0955L17.999 14.1035L18.999 16.1035H21.999V10.1035L13.666 10.0935C12.592 7.38352 10.122 6.10352 7.99902 6.10352ZM7.99902 11.1035C8.25502 11.1035 8.52202 11.1895 8.71802 11.3845C9.10802 11.7755 9.10802 12.4315 8.71802 12.8225C8.32702 13.2125 7.67103 13.2125 7.28003 12.8225C6.89003 12.4315 6.89003 11.7755 7.28003 11.3845C7.47603 11.1895 7.74302 11.1035 7.99902 11.1035Z" fill="black"/>
</svg>
